<svg width="24" height="24" viewBox="0 0 24 24" fill="none" xmlns="http://www.w3.org/2000/svg">
<circle cx="12" cy="12" r="12" fill="#EBEDF0"/>
<path d="M9.55044 11.2774C9.54832 11.7835 9.55044 12.2897 9.55258 12.7958C10.4011 12.8235 11.2518 12.8107 12.1003 12.8235C11.726 14.7056 9.16555 15.3159 7.81086 14.0867C6.41788 13.0085 6.48381 10.6436 7.93208 9.64199C8.94437 8.83386 10.3841 9.03375 11.3964 9.73343C11.7941 9.36553 12.1662 8.97209 12.5256 8.56377C11.6835 7.89175 10.6499 7.41325 9.55044 7.4643C7.25579 7.38774 5.14615 9.39742 5.10788 11.6921C4.96112 13.5678 6.19459 15.4073 7.93634 16.0709C9.67168 16.7386 11.8962 16.2835 13.0042 14.7247C13.7357 13.7401 13.8931 12.4726 13.808 11.2816C12.3874 11.271 10.9689 11.2731 9.55044 11.2774Z" fill="#6D747A"/>
<path d="M17.8486 11.2713C17.8444 10.848 17.8422 10.4227 17.8401 9.99951C17.4169 9.99951 16.9958 9.99951 16.5748 9.99951C16.5705 10.4227 16.5663 10.8459 16.5641 11.2713C16.1388 11.2734 15.7156 11.2755 15.2924 11.2798C15.2924 11.703 15.2924 12.124 15.2924 12.5451C15.7156 12.5494 16.1409 12.5537 16.5641 12.5579C16.5684 12.9811 16.5684 13.4043 16.5727 13.8275C16.9959 13.8275 17.4169 13.8275 17.8401 13.8275C17.8422 13.4043 17.8444 12.9811 17.8486 12.5558C18.274 12.5515 18.6972 12.5494 19.1204 12.5451C19.1204 12.124 19.1204 11.7008 19.1204 11.2798C18.6972 11.2755 18.2718 11.2755 17.8486 11.2713Z" fill="#6D747A"/>
</svg>
