<svg width="24" height="24" viewBox="0 0 24 24" fill="none" xmlns="http://www.w3.org/2000/svg">
<circle cx="12" cy="12" r="12" fill="#EBEDF0"/>
<path d="M12 5.172C10.146 5.172 9.9135 5.17986 9.18537 5.21308C8.45875 5.24625 7.9625 5.36163 7.52825 5.5304C7.07933 5.70486 6.69863 5.93829 6.31911 6.3178C5.9396 6.69731 5.70618 7.07802 5.53172 7.52693C5.36295 7.96115 5.24756 8.45741 5.21439 9.18402C5.18117 9.91216 5.17334 10.1446 5.17334 11.9987C5.17334 13.8526 5.18117 14.0851 5.21439 14.8133C5.24756 15.5399 5.36295 16.0361 5.53172 16.4704C5.70618 16.9193 5.9396 17.3 6.31911 17.6795C6.69863 18.059 7.07933 18.2924 7.52825 18.4669C7.9625 18.6356 8.45875 18.7511 9.18537 18.7842C9.9135 18.8174 10.146 18.8253 12 18.8253C13.854 18.8253 14.0865 18.8174 14.8146 18.7842C15.5412 18.7511 16.0375 18.6356 16.4717 18.4669C16.9206 18.2924 17.3013 18.059 17.6809 17.6795C18.0604 17.3 18.2938 16.9193 18.4682 16.4704C18.637 16.0361 18.7524 15.5399 18.7855 14.8133C18.8188 14.0851 18.8266 13.8526 18.8266 11.9987C18.8266 10.1446 18.8188 9.91216 18.7855 9.18402C18.7524 8.45741 18.637 7.96115 18.4682 7.52693C18.2938 7.07802 18.0604 6.69731 17.6809 6.3178C17.3013 5.93829 16.9206 5.70486 16.4717 5.5304C16.0375 5.36163 15.5412 5.24625 14.8146 5.21308C14.0865 5.17986 13.854 5.172 12 5.172ZM12 6.40205C13.8228 6.40205 14.0387 6.40898 14.7585 6.44183C15.4241 6.47221 15.7856 6.58342 16.0261 6.67688C16.3448 6.80072 16.5722 6.94868 16.8111 7.18755C17.05 7.42642 17.1979 7.65386 17.3217 7.97248C17.4152 8.21303 17.5264 8.5745 17.5568 9.24009C17.5896 9.95993 17.5966 10.1759 17.5966 11.9987C17.5966 13.8214 17.5896 14.0373 17.5568 14.7572C17.5264 15.4228 17.4152 15.7842 17.3217 16.0248C17.1979 16.3434 17.05 16.5709 16.8111 16.8097C16.5722 17.0486 16.3448 17.1966 16.0261 17.3204C15.7856 17.4139 15.4241 17.5251 14.7585 17.5555C14.0388 17.5883 13.8229 17.5953 12 17.5953C10.1771 17.5953 9.96119 17.5883 9.24143 17.5555C8.57584 17.5251 8.21438 17.4139 7.97382 17.3204C7.65517 17.1966 7.42776 17.0486 7.18886 16.8097C6.94999 16.5709 6.80204 16.3434 6.67822 16.0248C6.58473 15.7842 6.47352 15.4228 6.44314 14.7572C6.4103 14.0373 6.40336 13.8214 6.40336 11.9987C6.40336 10.1759 6.4103 9.95993 6.44314 9.24009C6.47352 8.5745 6.58473 8.21303 6.67822 7.97248C6.80204 7.65386 6.94999 7.42642 7.18886 7.18755C7.42776 6.94868 7.65517 6.80072 7.97382 6.67688C8.21438 6.58342 8.57584 6.47221 9.24143 6.44183C9.96128 6.40898 10.1772 6.40205 12 6.40205Z" fill="#6D747A"/>
<path d="M12.0002 14.2808C10.7434 14.2808 9.72465 13.262 9.72465 12.0052C9.72465 10.7484 10.7434 9.72966 12.0002 9.72966C13.257 9.72966 14.2757 10.7484 14.2757 12.0052C14.2757 13.262 13.257 14.2808 12.0002 14.2808ZM12.0002 8.49963C10.0641 8.49963 8.49463 10.0691 8.49463 12.0052C8.49463 13.9413 10.0641 15.5108 12.0002 15.5108C13.9363 15.5108 15.5058 13.9413 15.5058 12.0052C15.5058 10.0691 13.9363 8.49963 12.0002 8.49963Z" fill="#6D747A"/>
<path d="M16.4631 8.3508C16.4631 8.80324 16.0963 9.16999 15.6439 9.16999C15.1915 9.16999 14.8247 8.80324 14.8247 8.3508C14.8247 7.89837 15.1915 7.53162 15.6439 7.53162C16.0963 7.53162 16.4631 7.89837 16.4631 8.3508Z" fill="#6D747A"/>
</svg>
