<svg width="16" height="16" viewBox="0 0 16 16" fill="none" xmlns="http://www.w3.org/2000/svg">
<g clip-path="url(#clip0_1_1187)">
<path d="M11.8195 5.33329H11.1629V3.99996C11.1629 2.15996 9.69202 0.666626 7.87969 0.666626C6.06736 0.666626 4.59648 2.15996 4.59648 3.99996V5.33329H3.93984C3.21753 5.33329 2.62656 5.93329 2.62656 6.66663V13.3333C2.62656 14.0666 3.21753 14.6666 3.93984 14.6666H11.8195C12.5418 14.6666 13.1328 14.0666 13.1328 13.3333V6.66663C13.1328 5.93329 12.5418 5.33329 11.8195 5.33329ZM7.87969 11.3333C7.15738 11.3333 6.56641 10.7333 6.56641 9.99996C6.56641 9.26663 7.15738 8.66663 7.87969 8.66663C8.60199 8.66663 9.19297 9.26663 9.19297 9.99996C9.19297 10.7333 8.60199 11.3333 7.87969 11.3333ZM5.90976 5.33329V3.99996C5.90976 2.89329 6.78966 1.99996 7.87969 1.99996C8.96971 1.99996 9.84961 2.89329 9.84961 3.99996V5.33329H5.90976Z" fill="#939CA3"/>
</g>
<defs>
<clipPath id="clip0_1_1187">
<rect width="15.7594" height="16" fill="white"/>
</clipPath>
</defs>
</svg>
