<svg width="24" height="24" viewBox="0 0 24 24" fill="none" xmlns="http://www.w3.org/2000/svg">
<path d="M21.92 7.2499V7.3799L20.46 12.7799C20.2875 13.4208 19.9072 13.9864 19.3788 14.3882C18.8504 14.7899 18.2037 15.005 17.54 14.9999H9.89001C9.139 15.0029 8.41417 14.7242 7.85871 14.2187C7.30326 13.7133 6.95759 13.0179 6.89001 12.2699L6.24001 4.9099C6.21748 4.66058 6.10226 4.42878 5.91711 4.26029C5.73195 4.0918 5.49034 3.99889 5.24001 3.9999H3.07001C2.80479 3.9999 2.55044 3.89455 2.3629 3.70701C2.17536 3.51947 2.07001 3.26512 2.07001 2.9999C2.07001 2.73469 2.17536 2.48033 2.3629 2.2928C2.55044 2.10526 2.80479 1.9999 3.07001 1.9999H5.24001C5.99101 1.99686 6.71585 2.2756 7.2713 2.78106C7.82676 3.28652 8.17242 3.98194 8.24001 4.7299V4.9999H19.93C20.2151 4.99767 20.4973 5.0564 20.7578 5.17216C21.0184 5.28792 21.2511 5.45804 21.4405 5.67111C21.6299 5.88418 21.7716 6.13528 21.856 6.40757C21.9404 6.67987 21.9657 6.96706 21.93 7.2499H21.92Z" fill="#8064A2"/>
<path d="M9.07001 22C10.4507 22 11.57 20.8807 11.57 19.5C11.57 18.1193 10.4507 17 9.07001 17C7.68929 17 6.57001 18.1193 6.57001 19.5C6.57001 20.8807 7.68929 22 9.07001 22Z" fill="#8064A2"/>
<path d="M17.0701 22C18.4508 22 19.5701 20.8807 19.5701 19.5C19.5701 18.1193 18.4508 17 17.0701 17C15.6894 17 14.5701 18.1193 14.5701 19.5C14.5701 20.8807 15.6894 22 17.0701 22Z" fill="#8064A2"/>
</svg>
